<svg width="45" height="65" viewBox="0 0 45 65" fill="none" xmlns="http://www.w3.org/2000/svg">
<path d="M17.1442 49.5769H7.69084V15.8868H23.6308C31.6762 15.8868 36.8554 20.5632 36.8554 28.3068C36.8554 36.302 31.6762 40.6766 23.6308 40.6766H17.1442V49.5769ZM23.2788 24.3847H17.1442V32.229H23.2788C26.4969 32.229 27.4021 31.6256 27.4021 28.3068C27.4021 24.9881 26.4969 24.3847 23.2788 24.3847Z" fill="black"/>
<mask id="mask0_194_232" style="mask-type:alpha" maskUnits="userSpaceOnUse" x="14" y="6" width="31" height="31">
<rect x="14.9835" y="13.6061" width="9.85884" height="32.5909" transform="rotate(-45 14.9835 13.6061)" fill="#D9D9D9"/>
</mask>
<g mask="url(#mask0_194_232)">
<path d="M18.705 49.8895H9.25163V16.1994H25.1916C33.237 16.1994 38.4162 20.8757 38.4162 28.6194C38.4162 36.6145 33.237 40.9892 25.1916 40.9892H18.705V49.8895ZM24.8396 24.6973H18.705V32.5416H24.8396C28.0577 32.5416 28.9628 31.9382 28.9628 28.6194C28.9628 25.3007 28.0577 24.6973 24.8396 24.6973Z" fill="#FFEB5A"/>
</g>
<mask id="mask1_194_232" style="mask-type:alpha" maskUnits="userSpaceOnUse" x="8" y="14" width="31" height="31">
<rect x="8.42822" y="21.0984" width="9.98902" height="32.5909" transform="rotate(-45 8.42822 21.0984)" fill="#D9D9D9"/>
</mask>
<g mask="url(#mask1_194_232)">
<path d="M18.705 49.8895H9.25163V16.1994H25.1916C33.237 16.1994 38.4162 20.8757 38.4162 28.6194C38.4162 36.6145 33.237 40.9892 25.1916 40.9892H18.705V49.8895ZM24.8396 24.6973H18.705V32.5416H24.8396C28.0577 32.5416 28.9628 31.9382 28.9628 28.6194C28.9628 25.3007 28.0577 24.6973 24.8396 24.6973Z" fill="#427EFF"/>
</g>
<mask id="mask2_194_232" style="mask-type:alpha" maskUnits="userSpaceOnUse" x="4" y="24" width="26" height="26">
<rect x="4.99451" y="31.7114" width="9.98902" height="24.6604" transform="rotate(-45 4.99451 31.7114)" fill="#D9D9D9"/>
</mask>
<g mask="url(#mask2_194_232)">
<path d="M18.705 49.8895H9.25163V16.1994H25.1916C33.237 16.1994 38.4162 20.8757 38.4162 28.6194C38.4162 36.6145 33.237 40.9892 25.1916 40.9892H18.705V49.8895ZM24.8396 24.6973H18.705V32.5416H24.8396C28.0577 32.5416 28.9628 31.9382 28.9628 28.6194C28.9628 25.3007 28.0577 24.6973 24.8396 24.6973Z" fill="#34DF77"/>
</g>
<mask id="mask3_194_232" style="mask-type:alpha" maskUnits="userSpaceOnUse" x="0" y="33" width="25" height="26">
<rect y="41.0769" width="10.3012" height="24.6604" transform="rotate(-45 0 41.0769)" fill="#D9D9D9"/>
</mask>
<g mask="url(#mask3_194_232)">
<path d="M18.705 49.8895H9.25163V16.1994H25.1916C33.237 16.1994 38.4162 20.8757 38.4162 28.6194C38.4162 36.6145 33.237 40.9892 25.1916 40.9892H18.705V49.8895ZM24.8396 24.6973H18.705V32.5416H24.8396C28.0577 32.5416 28.9628 31.9382 28.9628 28.6194C28.9628 25.3007 28.0577 24.6973 24.8396 24.6973Z" fill="#FF5858"/>
</g>
<path d="M5.51025 47.5279L9.20858 50.0252H9.36465L9.52073 47.5279H5.51025Z" fill="#FF5858"/>
<path d="M33.616 18.674L29.3428 15.8434L29.0306 15.6873L27.4698 17.1868L33.616 18.674Z" fill="#FFEB5A"/>
<path d="M14.9592 47.3919H5.5059V13.7018H21.4458C29.4912 13.7018 34.6705 18.3782 34.6705 26.1219C34.6705 34.117 29.4912 38.4917 21.4458 38.4917H14.9592V47.3919ZM21.0939 22.1998H14.9592V30.044H21.0939C24.312 30.044 25.2171 29.4406 25.2171 26.1219C25.2171 22.8032 24.312 22.1998 21.0939 22.1998Z" fill="black"/>
</svg>
